<mxfile host="app.diagrams.net" agent="Mozilla/5.0 (Windows NT 10.0; Win64; x64) AppleWebKit/537.36 (KHTML, like Gecko) Chrome/137.0.0.0 Safari/537.36" version="27.1.6">
  <diagram name="Page-1" id="TvrZV6Bif_vGlXN42QyB">
    <mxGraphModel dx="1213" dy="764" grid="1" gridSize="10" guides="1" tooltips="1" connect="1" arrows="1" fold="1" page="1" pageScale="1" pageWidth="850" pageHeight="1100" math="0" shadow="0">
      <root>
        <mxCell id="0" />
        <mxCell id="1" parent="0" />
        <mxCell id="jyAAHCfXf7Vgwumai7jS-1" value="Web3 Hedge Fund&lt;div&gt;(Smart Contract)&lt;/div&gt;" style="rounded=0;whiteSpace=wrap;html=1;" vertex="1" parent="1">
          <mxGeometry x="420" y="400" width="120" height="60" as="geometry" />
        </mxCell>
        <mxCell id="jyAAHCfXf7Vgwumai7jS-11" style="edgeStyle=orthogonalEdgeStyle;rounded=0;orthogonalLoop=1;jettySize=auto;html=1;exitX=0.5;exitY=0;exitDx=0;exitDy=0;entryX=0;entryY=0.5;entryDx=0;entryDy=0;" edge="1" parent="1" source="jyAAHCfXf7Vgwumai7jS-4" target="jyAAHCfXf7Vgwumai7jS-6">
          <mxGeometry relative="1" as="geometry" />
        </mxCell>
        <mxCell id="jyAAHCfXf7Vgwumai7jS-13" style="edgeStyle=orthogonalEdgeStyle;rounded=0;orthogonalLoop=1;jettySize=auto;html=1;exitX=0.5;exitY=1;exitDx=0;exitDy=0;entryX=0;entryY=0.5;entryDx=0;entryDy=0;" edge="1" parent="1" source="jyAAHCfXf7Vgwumai7jS-4" target="jyAAHCfXf7Vgwumai7jS-8">
          <mxGeometry relative="1" as="geometry" />
        </mxCell>
        <mxCell id="jyAAHCfXf7Vgwumai7jS-17" style="edgeStyle=orthogonalEdgeStyle;rounded=0;orthogonalLoop=1;jettySize=auto;html=1;exitX=0.5;exitY=1;exitDx=0;exitDy=0;entryX=0;entryY=0.5;entryDx=0;entryDy=0;" edge="1" parent="1" source="jyAAHCfXf7Vgwumai7jS-4" target="jyAAHCfXf7Vgwumai7jS-15">
          <mxGeometry relative="1" as="geometry" />
        </mxCell>
        <mxCell id="jyAAHCfXf7Vgwumai7jS-18" style="edgeStyle=orthogonalEdgeStyle;rounded=0;orthogonalLoop=1;jettySize=auto;html=1;exitX=0.5;exitY=0;exitDx=0;exitDy=0;entryX=0;entryY=0.5;entryDx=0;entryDy=0;" edge="1" parent="1" source="jyAAHCfXf7Vgwumai7jS-4" target="jyAAHCfXf7Vgwumai7jS-7">
          <mxGeometry relative="1" as="geometry" />
        </mxCell>
        <mxCell id="jyAAHCfXf7Vgwumai7jS-25" style="edgeStyle=orthogonalEdgeStyle;rounded=0;orthogonalLoop=1;jettySize=auto;html=1;entryX=0;entryY=0.5;entryDx=0;entryDy=0;" edge="1" parent="1" source="jyAAHCfXf7Vgwumai7jS-4" target="jyAAHCfXf7Vgwumai7jS-24">
          <mxGeometry relative="1" as="geometry">
            <Array as="points">
              <mxPoint x="135" y="620" />
            </Array>
          </mxGeometry>
        </mxCell>
        <mxCell id="jyAAHCfXf7Vgwumai7jS-4" value="Investor" style="ellipse;whiteSpace=wrap;html=1;aspect=fixed;" vertex="1" parent="1">
          <mxGeometry x="95" y="390" width="80" height="80" as="geometry" />
        </mxCell>
        <mxCell id="jyAAHCfXf7Vgwumai7jS-23" style="edgeStyle=orthogonalEdgeStyle;rounded=0;orthogonalLoop=1;jettySize=auto;html=1;exitX=1;exitY=0.5;exitDx=0;exitDy=0;entryX=0;entryY=0.5;entryDx=0;entryDy=0;" edge="1" parent="1" source="jyAAHCfXf7Vgwumai7jS-6" target="jyAAHCfXf7Vgwumai7jS-1">
          <mxGeometry relative="1" as="geometry" />
        </mxCell>
        <mxCell id="jyAAHCfXf7Vgwumai7jS-6" value="Place Investments" style="whiteSpace=wrap;html=1;aspect=fixed;" vertex="1" parent="1">
          <mxGeometry x="195" y="130" width="80" height="80" as="geometry" />
        </mxCell>
        <mxCell id="jyAAHCfXf7Vgwumai7jS-22" style="edgeStyle=orthogonalEdgeStyle;rounded=0;orthogonalLoop=1;jettySize=auto;html=1;exitX=1;exitY=0.5;exitDx=0;exitDy=0;entryX=0;entryY=0.5;entryDx=0;entryDy=0;" edge="1" parent="1" source="jyAAHCfXf7Vgwumai7jS-7" target="jyAAHCfXf7Vgwumai7jS-1">
          <mxGeometry relative="1" as="geometry" />
        </mxCell>
        <mxCell id="jyAAHCfXf7Vgwumai7jS-7" value="View Progress&lt;div&gt;&lt;br&gt;&lt;/div&gt;" style="whiteSpace=wrap;html=1;aspect=fixed;" vertex="1" parent="1">
          <mxGeometry x="195" y="250" width="80" height="80" as="geometry" />
        </mxCell>
        <mxCell id="jyAAHCfXf7Vgwumai7jS-21" style="edgeStyle=orthogonalEdgeStyle;rounded=0;orthogonalLoop=1;jettySize=auto;html=1;exitX=1;exitY=0.5;exitDx=0;exitDy=0;entryX=0;entryY=0.5;entryDx=0;entryDy=0;" edge="1" parent="1" source="jyAAHCfXf7Vgwumai7jS-8" target="jyAAHCfXf7Vgwumai7jS-1">
          <mxGeometry relative="1" as="geometry" />
        </mxCell>
        <mxCell id="jyAAHCfXf7Vgwumai7jS-8" value="Request Refund" style="whiteSpace=wrap;html=1;aspect=fixed;" vertex="1" parent="1">
          <mxGeometry x="195" y="480" width="80" height="80" as="geometry" />
        </mxCell>
        <mxCell id="jyAAHCfXf7Vgwumai7jS-27" style="edgeStyle=orthogonalEdgeStyle;rounded=0;orthogonalLoop=1;jettySize=auto;html=1;entryX=1;entryY=0.5;entryDx=0;entryDy=0;" edge="1" parent="1" source="jyAAHCfXf7Vgwumai7jS-10" target="jyAAHCfXf7Vgwumai7jS-26">
          <mxGeometry relative="1" as="geometry" />
        </mxCell>
        <mxCell id="jyAAHCfXf7Vgwumai7jS-31" style="edgeStyle=orthogonalEdgeStyle;rounded=0;orthogonalLoop=1;jettySize=auto;html=1;entryX=1;entryY=0.5;entryDx=0;entryDy=0;" edge="1" parent="1" source="jyAAHCfXf7Vgwumai7jS-10" target="jyAAHCfXf7Vgwumai7jS-29">
          <mxGeometry relative="1" as="geometry">
            <Array as="points">
              <mxPoint x="675" y="430" />
              <mxPoint x="675" y="340" />
            </Array>
          </mxGeometry>
        </mxCell>
        <mxCell id="jyAAHCfXf7Vgwumai7jS-34" style="edgeStyle=orthogonalEdgeStyle;rounded=0;orthogonalLoop=1;jettySize=auto;html=1;entryX=1;entryY=0.5;entryDx=0;entryDy=0;" edge="1" parent="1" source="jyAAHCfXf7Vgwumai7jS-10" target="jyAAHCfXf7Vgwumai7jS-33">
          <mxGeometry relative="1" as="geometry" />
        </mxCell>
        <mxCell id="jyAAHCfXf7Vgwumai7jS-10" value="Fund Manager" style="ellipse;whiteSpace=wrap;html=1;aspect=fixed;" vertex="1" parent="1">
          <mxGeometry x="695" y="390" width="80" height="80" as="geometry" />
        </mxCell>
        <mxCell id="jyAAHCfXf7Vgwumai7jS-19" style="edgeStyle=orthogonalEdgeStyle;rounded=0;orthogonalLoop=1;jettySize=auto;html=1;exitX=1;exitY=0.5;exitDx=0;exitDy=0;entryX=0;entryY=0.5;entryDx=0;entryDy=0;" edge="1" parent="1" source="jyAAHCfXf7Vgwumai7jS-15" target="jyAAHCfXf7Vgwumai7jS-1">
          <mxGeometry relative="1" as="geometry" />
        </mxCell>
        <mxCell id="jyAAHCfXf7Vgwumai7jS-15" value="Claim Reward" style="whiteSpace=wrap;html=1;aspect=fixed;" vertex="1" parent="1">
          <mxGeometry x="195" y="690" width="80" height="80" as="geometry" />
        </mxCell>
        <mxCell id="jyAAHCfXf7Vgwumai7jS-32" style="edgeStyle=orthogonalEdgeStyle;rounded=0;orthogonalLoop=1;jettySize=auto;html=1;entryX=0;entryY=0.5;entryDx=0;entryDy=0;" edge="1" parent="1" source="jyAAHCfXf7Vgwumai7jS-24" target="jyAAHCfXf7Vgwumai7jS-1">
          <mxGeometry relative="1" as="geometry" />
        </mxCell>
        <mxCell id="jyAAHCfXf7Vgwumai7jS-24" value="Claim still&lt;div&gt;&amp;nbsp;not working Investments&lt;/div&gt;" style="whiteSpace=wrap;html=1;aspect=fixed;" vertex="1" parent="1">
          <mxGeometry x="195" y="580" width="80" height="80" as="geometry" />
        </mxCell>
        <mxCell id="jyAAHCfXf7Vgwumai7jS-28" style="edgeStyle=orthogonalEdgeStyle;rounded=0;orthogonalLoop=1;jettySize=auto;html=1;" edge="1" parent="1" source="jyAAHCfXf7Vgwumai7jS-26" target="jyAAHCfXf7Vgwumai7jS-1">
          <mxGeometry relative="1" as="geometry" />
        </mxCell>
        <mxCell id="jyAAHCfXf7Vgwumai7jS-26" value="Claim Investments and record investments as investments in working" style="whiteSpace=wrap;html=1;aspect=fixed;" vertex="1" parent="1">
          <mxGeometry x="555" y="190" width="100" height="100" as="geometry" />
        </mxCell>
        <mxCell id="jyAAHCfXf7Vgwumai7jS-30" style="edgeStyle=orthogonalEdgeStyle;rounded=0;orthogonalLoop=1;jettySize=auto;html=1;entryX=0.5;entryY=0;entryDx=0;entryDy=0;" edge="1" parent="1" source="jyAAHCfXf7Vgwumai7jS-29" target="jyAAHCfXf7Vgwumai7jS-1">
          <mxGeometry relative="1" as="geometry" />
        </mxCell>
        <mxCell id="jyAAHCfXf7Vgwumai7jS-29" value="Place Rewards" style="whiteSpace=wrap;html=1;aspect=fixed;" vertex="1" parent="1">
          <mxGeometry x="565" y="300" width="80" height="80" as="geometry" />
        </mxCell>
        <mxCell id="jyAAHCfXf7Vgwumai7jS-35" style="edgeStyle=orthogonalEdgeStyle;rounded=0;orthogonalLoop=1;jettySize=auto;html=1;entryX=0.5;entryY=1;entryDx=0;entryDy=0;" edge="1" parent="1" source="jyAAHCfXf7Vgwumai7jS-33" target="jyAAHCfXf7Vgwumai7jS-1">
          <mxGeometry relative="1" as="geometry" />
        </mxCell>
        <mxCell id="jyAAHCfXf7Vgwumai7jS-36" style="edgeStyle=orthogonalEdgeStyle;rounded=0;orthogonalLoop=1;jettySize=auto;html=1;entryX=0;entryY=0.5;entryDx=0;entryDy=0;" edge="1" parent="1" source="jyAAHCfXf7Vgwumai7jS-33" target="jyAAHCfXf7Vgwumai7jS-4">
          <mxGeometry relative="1" as="geometry">
            <Array as="points">
              <mxPoint x="605" y="800" />
              <mxPoint x="75" y="800" />
              <mxPoint x="75" y="430" />
            </Array>
          </mxGeometry>
        </mxCell>
        <mxCell id="jyAAHCfXf7Vgwumai7jS-33" value="Process Refund" style="whiteSpace=wrap;html=1;aspect=fixed;" vertex="1" parent="1">
          <mxGeometry x="565" y="470" width="80" height="80" as="geometry" />
        </mxCell>
      </root>
    </mxGraphModel>
  </diagram>
</mxfile>
